#Wavefront OBJ file, generated by BrawlCrate v0.26.1.0

#Vertices
v 8.534252 24.34503 9.263943
v 8.547898 23.96224 9.293455
v 8.109785 23.69926 9.323469
v 8.287447 23.57817 9.332207
v 8.00446 23.5354 9.707826
v 8.195807 23.37948 9.674469
v 7.688388 23.06303 10.023
v 7.966043 23.091 9.857773
v 7.84277 23.6988 9.720344
v 7.932124 23.82034 9.31473
v 7.435723 23.11689 10.07002
v 7.306203 23.25994 10.04205
v 7.670433 23.83865 9.723932
v 7.258507 23.61065 9.94357
v 8.393427 24.55463 9.257481
v 7.768422 23.97232 9.317691
v 7.500225 23.98319 9.729298
v 8.170009 24.57164 9.298172
v 7.601551 24.11729 9.317986
v 7.853867 24.43521 9.268636

#Normals
vn -1.714629 0.9953218 1.587759
vn -1.733123 1.020747 1.551114
vn -0.949612 2.040009 1.178217
vn -0.9497161 2.021655 1.209358
vn -0.410718 2.155863 1.278738
vn -0.3705276 2.123399 1.343683
vn -1.039061 1.830055 1.42227
vn -0.6107252 1.499954 1.958215
vn -0.410718 2.155863 1.278738
vn -0.386588 2.235624 1.141984
vn -0.949612 2.040009 1.178217
vn -0.8098485 2.078642 1.214493
vn -0.410718 2.155863 1.278738
vn -1.170915 1.82036 1.32923
vn -0.386588 2.235624 1.141984
vn -1.174564 1.769649 1.392959
vn -0.4083126 2.243828 1.118083
vn -1.06349 1.714276 1.543324
vn -1.59432 0.9186571 1.750946
vn -0.8098485 2.078642 1.214493
vn -0.7875702 1.985167 1.374932
vn -0.4083126 2.243828 1.118083
vn -0.3770351 2.253729 1.109119
vn -1.06349 1.714276 1.543324
vn -1.59432 0.9186571 1.750946
vn -0.7875702 1.985167 1.374932
vn -1.53975 0.873059 1.821686
vn -0.9026322 2.000387 1.278791
vn -2.081398 1.242637 0.758444
vn -0.949612 2.040009 1.178217
vn -0.8098485 2.078642 1.214493
vn -1.714629 0.9953218 1.587759
vn -1.59432 0.9186571 1.750946
vn -0.4083126 2.243828 1.118083
vn -0.8098485 2.078642 1.214493
vn -0.386588 2.235624 1.141984
vn -0.7875702 1.985167 1.374932
vn -0.3770351 2.253729 1.109119
vn -0.9026322 2.000387 1.278791
vn -1.170915 1.82036 1.32923
vn -0.410718 2.155863 1.278738
vn -1.039061 1.830055 1.42227

#UVs
vt 0.586123 0.593876004219055
vt 0.599228 0.571530997753143
vt 0.586123 0.530107975006104
vt 0.599228 0.530107975006104
vt 0.58581 0.461230039596558
vt 0.598915 0.461230039596558
vt 0.586123 0.407566010951996
vt 0.599228 0.424558997154236
vt 0.58581 0.461230039596558
vt 0.572705 0.461230039596558
vt 0.586123 0.530107975006104
vt 0.573018 0.530107975006104
vt 0.58581 0.461230039596558
vt 0.573018 0.398895025253296
vt 0.572705 0.461230039596558
vt 0.559912 0.407566010951996
vt 0.559599 0.461230039596558
vt 0.546807 0.424543023109436
vt 0.573018 0.601100027561188
vt 0.573018 0.530107975006104
vt 0.559912 0.530107975006104
vt 0.559599 0.461230039596558
vt 0.546494 0.461230039596558
vt 0.546807 0.424543023109436
vt 0.573018 0.601100027561188
vt 0.559912 0.530107975006104
vt 0.559912 0.593876004219055
vt 0.546807 0.530107975006104
vt 0.546807 0.571530997753143
vt 0.586123 0.530107975006104
vt 0.573018 0.530107975006104
vt 0.586123 0.593876004219055
vt 0.573018 0.601100027561188
vt 0.559599 0.461230039596558
vt 0.573018 0.530107975006104
vt 0.572705 0.461230039596558
vt 0.559912 0.530107975006104
vt 0.546494 0.461230039596558
vt 0.546807 0.530107975006104
vt 0.573018 0.398895025253296
vt 0.58581 0.461230039596558
vt 0.586123 0.407566010951996

g polygon59
usemtl Pants

#Trilist
f 3/3/3 2/2/2 1/1/1
f 4/4/4 2/2/2 3/3/3
f 5/5/5 4/4/4 3/3/3
f 6/6/6 4/4/4 5/5/5
f 7/7/7 6/6/6 5/5/5
f 8/8/8 6/6/6 7/7/7
f 3/11/11 9/10/10 5/9/9
f 10/12/12 9/10/10 3/11/11
f 9/15/15 11/14/14 5/13/13
f 12/16/16 11/14/14 9/15/15
f 13/17/17 12/16/16 9/15/15
f 14/18/18 12/16/16 13/17/17
f 16/21/21 10/20/20 15/19/19
f 13/22/22 10/20/20 16/21/21
f 17/23/23 13/22/22 16/21/21
f 14/24/24 13/22/22 17/23/23
f 18/27/27 16/26/26 15/25/25
f 19/28/28 16/26/26 18/27/27
f 20/29/29 19/28/28 18/27/27
f 1/32/32 10/31/31 3/30/30
f 15/33/33 10/31/31 1/32/32
f 9/36/36 10/35/35 13/34/34
f 19/39/39 17/38/38 16/37/37
f 7/42/42 5/41/41 11/40/40
